<?xml version="1.0" encoding="utf-8" ?>
<svg xmlns="http://www.w3.org/2000/svg" xmlns:xlink="http://www.w3.org/1999/xlink" width="1024" height="1024">
	<path transform="scale(2 2)" d="M102.334 120.812C100.035 122.531 83.4818 142.603 82.7256 129.603C82.4275 124.479 82.2947 87.9889 83.1757 85.4643C83.6843 84.0067 85.6204 82.8354 86.9579 82.265C95.5812 81.9161 104.37 82.2521 113.013 82.254C116.06 82.2547 139.783 79.7005 134.509 88.5481C132.692 91.5954 124.728 98.4789 121.726 101.643C121.629 105.19 121.721 108.761 121.726 112.309L137.375 112.309C138.651 109.927 160.688 86.5024 164.607 85.9562C169.573 85.2641 177.573 85.7555 182.918 85.7545L348.33 85.7605C352.822 88.5267 371.213 107.864 375.143 112.309L390.49 112.309L390.49 101.643C388.432 99.4385 369.074 83.3581 380.411 82.3706C390.69 81.4754 413.71 81.5598 423.946 82.3681C429.014 82.7683 429.105 85.7319 429.481 90.2537C430.033 96.8938 429.692 103.77 429.691 110.434C429.691 114.402 432.498 139.304 422.694 132.914C419.601 130.898 413.368 123.738 410.508 120.812L399.294 120.812C399.34 126.237 398.977 131.694 399.294 137.11C402.498 139.344 423.66 160.337 426.124 163.814C426.993 168.211 426.461 176.266 426.462 181.075L426.463 300.762C426.464 306.914 427.535 346.842 425.682 349.685C421.204 356.559 405.791 369.912 399.294 377.019L399.294 391.056L410.508 391.056C412.94 387.936 428.706 368.927 429.689 382.047C430.139 388.06 429.635 394.363 429.65 400.415L429.714 415.773C429.733 420.699 430.969 425.958 426.458 429.184C420.19 430.262 378.967 429.022 378.297 428.451C377.115 427.44 377.122 425.508 376.974 424.082C379.452 420.464 387.02 413.517 390.49 410.237L390.49 399.505C385.124 399.8 379.63 399.522 374.248 399.505C371.053 402.26 368.153 405.499 365.213 408.531L355.051 418.804C352.931 420.976 350.793 423.81 348.33 425.525C346.073 425.731 343.72 425.563 341.452 425.551L164.453 425.525C160.328 423.553 140.965 403.608 137.375 399.505L121.726 399.505C121.499 403.079 121.545 406.662 121.726 410.237C124.271 412.602 141.112 425.296 132.12 428.637C129.657 429.552 92.7863 429.437 87.7762 429.133C79.6928 428.642 82.749 417.803 82.7337 412.431L82.6664 390.379C82.6439 388.101 81.6532 383.537 82.8484 381.509C87.8772 372.976 98.2601 388.391 102.334 391.056C105.842 391.245 109.368 391.156 112.877 391.056C112.906 386.008 113.036 380.931 112.877 375.886C104.445 366.272 94.3622 358.277 85.8223 348.845C85.465 342.336 85.8172 335.594 85.818 329.062L85.8223 164.229L86.0179 163.893C88.5533 159.489 107.697 141.804 112.877 137.11L112.877 120.812L102.334 120.812ZM92.0812 90.8571C90.737 92.2535 91.2502 115.007 91.2543 118.896C93.6519 116.789 95.9329 114.615 98.1418 112.309C103.018 112.595 107.988 112.283 112.877 112.309C114.566 99.1192 108.608 102.393 119.906 90.8571L92.0812 90.8571ZM397.921 90.8571C396.142 90.8603 394.359 90.8865 392.58 90.8571C394.796 93.2558 397.307 95.6371 399.294 98.2154C399.256 102.539 398.822 108.128 399.294 112.309C404.171 112.289 409.059 112.2 413.935 112.309C415.203 113.651 416.402 115.022 417.574 116.449C418.486 117.239 419.502 118.008 420.317 118.896L420.317 90.8571L397.921 90.8571ZM310.402 94.421L167.157 94.421C160.777 99.0114 154.224 106.562 148.748 112.309L216.875 112.309C224.806 112.32 232.75 112.423 240.679 112.309C245.05 106.851 250.8 101.689 255.907 96.8597C261.154 101.603 266.581 106.901 271.153 112.309L332.581 112.306C342.666 112.306 352.867 111.982 362.939 112.309C357.667 105.913 351.239 100.454 345.559 94.421L310.402 94.421ZM255.907 108.685C253.535 111.161 250.889 113.612 248.949 116.449C249.88 117.689 254.753 123.663 255.907 124.077C258.413 121.559 261.162 119.113 263.5 116.449C261.003 113.829 258.533 111.177 255.907 108.685ZM140.62 120.812C134.075 126.482 127.855 132.813 121.726 138.939C121.719 146.569 121.337 154.391 121.726 161.995C125.884 158.374 129.667 154.187 133.59 150.307L163.479 120.812L140.62 120.812ZM175.579 120.812C158.552 138.241 137.567 156.448 121.726 174.291L121.726 241.389C141.472 260.824 136.432 252.865 121.726 271.514L121.726 336.731C124.716 338.76 127.238 341.653 129.787 344.203L164.035 378.558C168.144 382.686 172.573 386.647 176.379 391.056L240.679 391.056C244.587 386.461 250.688 379.971 255.907 377.019C260.58 379.703 266.659 387.176 271.153 391.056L336.861 391.056C347.33 378.118 365.16 362.435 377.219 350.481C381.638 346.1 386.757 341.681 390.49 336.731L390.49 271.514C387.26 265.366 380.431 262.183 376.974 256.112C379.932 250.034 386.446 246.071 390.49 240.668L390.49 174.291C381.542 165.331 372.347 156.625 363.429 147.637C354.495 138.631 345.59 128.875 335.775 120.812L271.153 120.812L263.379 128.893C260.974 131.402 257.675 136.459 253.774 133.588C248.98 130.06 245.273 124.704 240.679 120.812L175.579 120.812ZM348.33 120.812C350.586 123.181 353.255 125.261 355.618 127.548C365.928 137.525 379.737 153.738 390.49 161.995L390.49 139.982C385.806 134.765 374.661 125.45 371.974 120.812L348.33 120.812ZM384.4 120.812C384.552 123.085 388.771 126.307 390.49 127.699C390.367 125.382 390.39 123.129 390.49 120.812C388.464 120.809 386.425 120.758 384.4 120.812ZM121.726 120.812C121.618 123.125 121.606 125.386 121.726 127.699C122.93 126.479 124.129 125.255 125.375 124.077L129.019 120.812C126.52 121.009 124.223 121.142 121.726 120.812ZM399.294 148.645L399.294 240.668C403.384 244.745 411.308 251.309 413.935 256.112C411.031 260.741 403.443 267.4 399.294 271.514L399.294 363.316C400.094 362.802 400.887 362.273 401.699 361.78C404.631 357.897 413.595 348.606 417.574 345.855L417.574 167.046C413.174 162.332 404.273 152.554 399.294 148.645ZM112.877 149.47C107.004 154.024 99.5978 161.291 94.7349 167.046L94.7349 345.855C100.286 351.076 105.567 356.594 111.147 361.78L112.877 363.316C113.019 357.34 112.88 351.343 112.879 345.364L112.884 285.265C112.892 280.703 113.074 276.068 112.877 271.514C94.3896 256.254 96.5809 255.652 112.877 240.668C112.801 231.118 113.157 149.962 112.877 149.47ZM117.088 248.991C114.523 251.244 112.117 253.672 109.729 256.112C110.939 257.381 115.699 262.983 117.088 263.327C119.546 260.992 122.05 258.665 124.285 256.112L117.088 248.991ZM395.676 248.991C392.709 251.018 390.454 253.449 388.079 256.112C389.445 257.539 394.007 262.918 395.676 263.327C398.048 260.978 400.409 258.603 402.632 256.112C401.273 254.562 397.193 249.549 395.676 248.991ZM121.726 348.845L121.726 372.079C127.672 377.257 135.387 385.175 140.62 391.056L164.453 391.056C159.558 386.901 155.145 382.126 150.631 377.566L131.672 358.591C128.948 355.876 124.676 350.812 121.726 348.845ZM390.49 349.96C386.32 353.467 382.577 357.492 378.725 361.34L360.247 379.898C357.291 382.885 351.809 387.34 349.729 390.596L349.755 390.952L349.987 391.056L371.974 391.056C373.652 388.35 376.668 385.875 378.932 383.627L390.49 372.079C390.49 369.556 390.828 350.476 390.49 349.96ZM121.726 384.674C121.595 386.83 121.586 388.902 121.726 391.056C124.162 391.115 126.584 391.105 129.019 391.056C126.995 389.466 123.783 385.617 121.726 384.674ZM390.49 384.674C388.265 386.521 386.254 388.428 384.411 390.659L384.4 391.056C386.438 390.993 388.453 390.981 390.49 391.056C390.456 389.167 390.935 386.411 390.49 384.674ZM255.907 388.23C253.507 390.509 250.973 392.721 248.949 395.352C250.726 397.336 253.717 401.448 255.907 402.563C258.471 400.202 260.791 397.543 263.5 395.352C260.987 393.015 258.582 390.362 255.907 388.23ZM420.317 393.452C410.195 402.109 413.875 399.447 399.294 399.505C399.323 404.414 399.702 409.608 399.294 414.484C397.461 416.215 395.468 417.97 394.106 420.112L394.127 420.481L420.317 420.481C420.317 417.879 420.507 393.722 420.317 393.452ZM91.2543 393.452L91.2543 420.481L119.906 420.481C112.911 413.548 112.261 408.676 112.877 399.505C104.348 399.559 97.6556 400.118 91.2543 393.452ZM239.311 399.505C209.441 399.857 179.522 399.505 149.648 399.505C154.058 405.147 161.852 411.762 167.157 417.035L288.375 417.035L344.46 417.035C350.406 411.234 356.179 405.265 362.164 399.505C331.84 399.503 301.471 399.13 271.153 399.505C267.916 403.084 259.536 412.362 255.907 414.484C253.016 412.783 240.793 398.98 239.311 399.505Z"/>
</svg>
